<?xml version="1.0" encoding="UTF-8"?>
<!-- Generator: Adobe Illustrator 23.0.1, SVG Export Plug-In . SVG Version: 6.00 Build 0)  -->
<svg version="1.1" id="Layer_1" xmlns="http://www.w3.org/2000/svg" xmlns:xlink="http://www.w3.org/1999/xlink" x="0px" y="0px" viewBox="0 0 499 598" style="enable-background:new 0 0 499 598;" xml:space="preserve">
<style type="text/css">
	.st0{fill:#EDEDED;}
</style>
<g>
	<path class="st0" d="M484.9,265.8c-0.6-9.2-1.5-21.3-3.3-33.6v0c-3.7-25.5-10.6-45.9-20.9-62.5c-17.2-27.5-45.7-34.5-68.5-37.6   c-9.1-1.2-18-1.1-26.6-0.9c-2.7,0-5.3,0.1-8,0.1c-6.9,0-13-3.8-16.1-10l-3.6-7.2C330.2,98.6,311.3,87,294.1,87h-88.5   c-17.3,0-36.1,11.6-43.8,27.1l-3.6,7.2c-3.1,6.1-9.2,10-16.1,10c-5.4,0-48.1,2.7-53.4,3.5c-9.6,1.5-20.7,3.6-30.9,10.2   c-13.1,8.5-23.6,20.5-30.3,34.8c-9.2,19.6-10.2,40-11.2,59.8c-0.1,3-0.3,5.9-0.5,8.9c-2.3,38.2-3.9,72.8-0.7,108   c2.1,23.6,6.8,53.8,24.2,79c23.2,33.5,61.5,41.4,88.3,44.4c39.7,4.4,78.5,8.4,118.2,8.6c0.9,0,1.7,0,2.6,0   c35.1,0,72.8-2.9,118.2-9.2c30.6-4.2,62-10.7,84.1-29.2c24.9-20.9,29.6-51.5,32.2-81.1C486.2,330.4,486.9,296.7,484.9,265.8z    M456.5,366.6c-2.2,25.1-5.7,48.8-22.9,63.3c-17,14.2-44.1,19.6-70.8,23.3c-45.3,6.2-82.6,8.9-117.1,8.9   c-38.3-0.2-76.4-4.1-115.3-8.4c-34.9-3.9-56.4-14.2-69.6-33.2c-13.9-20.1-17.8-46-19.6-66.4c-3-33.4-1.4-66.9,0.8-104.1   c0.2-3,0.3-6.1,0.5-9.1c0.9-18,1.7-35.1,8.7-50c4.5-9.7,11.9-18.2,20.8-23.9c5.3-3.4,11.8-4.9,20.6-6.3c4.7-0.7,45.5-3.2,49.4-3.2   c16.9,0,32.1-9.4,39.6-24.5l3.6-7.3c3.2-6.4,13.1-12.5,20.3-12.5h88.5c7.2,0,17,6.1,20.3,12.5l3.6,7.2   c7.5,15.1,22.7,24.5,39.6,24.5c2.8,0,5.6,0,8.5-0.1c7.9-0.1,15.5-0.3,22.6,0.7c25.8,3.5,40.7,11.1,49.7,25.5   c8.5,13.5,14,30.1,17.2,52.3v0c1.7,11.3,2.5,22.8,3.1,31.5C460.6,297,459.9,329.4,456.5,366.6z"/>
	<path class="st0" d="M249.6,197.8c-55.6,0-100.9,45.3-100.9,100.9S194,399.7,249.6,399.7s100.9-45.3,100.9-100.9   S305.3,197.8,249.6,197.8z M249.6,373.4c-41.2,0-74.6-33.5-74.6-74.6c0-41.2,33.5-74.6,74.6-74.6c41.1,0,74.6,33.5,74.6,74.6   C324.3,339.9,290.8,373.4,249.6,373.4z"/>
</g>
</svg>